<svg width="23" height="24" viewBox="0 0 23 24" fill="none" xmlns="http://www.w3.org/2000/svg">
<path d="M19.4107 0C20.8388 0 21.9907 1.13701 22.0587 2.475V24L19.3396 21.727L17.8463 20.389L16.217 18.9911L16.8976 21.1961H2.63869C1.21464 21.1961 0.0587158 20.1311 0.0587158 18.7201V2.48002C0.0587158 1.14199 1.21665 0.00299811 2.64378 0.00299811H19.4033L19.4107 0ZM13.1963 5.68301H13.1658L12.9607 5.88302C15.0663 6.483 16.0851 7.42 16.0851 7.42C14.728 6.752 13.5051 6.41798 12.2821 6.283C11.3985 6.14801 10.5147 6.21899 9.76818 6.283H9.56503C9.08762 6.283 8.07174 6.483 6.7108 7.018C6.23644 7.22101 5.96423 7.35394 5.96423 7.35394C5.96423 7.35394 6.98201 6.35192 9.22476 5.81692L9.08765 5.68193C9.08765 5.68193 7.38935 5.61792 5.55595 6.95194C5.55595 6.95194 3.72255 10.0959 3.72255 13.972C3.72255 13.972 4.73827 15.712 7.52444 15.7781C7.52444 15.7781 7.93074 15.245 8.34211 14.776C6.77787 14.308 6.16845 13.372 6.16845 13.372C6.28576 13.4321 6.39938 13.4988 6.50871 13.572H6.56965C6.58142 13.5723 6.59297 13.5752 6.6035 13.5804C6.61402 13.5856 6.62327 13.5929 6.6306 13.602V13.608C6.63777 13.6172 6.64699 13.6247 6.65755 13.6299C6.66811 13.6351 6.67973 13.6379 6.69154 13.638C7.02674 13.774 7.36194 13.908 7.63616 14.038C8.22268 14.2852 8.83617 14.4651 9.4645 14.574C10.4091 14.709 11.4919 14.774 12.725 14.574C13.3345 14.4391 13.9439 14.307 14.5534 14.039C14.9496 13.839 15.437 13.639 15.9724 13.3022C15.9724 13.3022 15.3629 14.2381 13.7326 14.7062C14.0678 15.1721 14.5402 15.7062 14.5402 15.7062C17.3274 15.6462 18.4101 13.9062 18.4711 13.9802C18.4711 10.1101 16.6275 6.96014 16.6275 6.96014C14.9668 5.74612 13.4127 5.70013 13.1383 5.70013L13.1951 5.68012L13.1963 5.68301ZM13.3669 10.096C14.081 10.096 14.6569 10.696 14.6569 11.431C14.6569 12.171 14.0779 12.7711 13.3669 12.7711C12.6559 12.7711 12.0769 12.1711 12.0769 11.4371C12.079 10.6971 12.659 10.0991 13.3669 10.0991V10.096ZM8.75242 10.096C9.46343 10.096 10.0383 10.696 10.0383 11.431C10.0383 12.171 9.45936 12.7711 8.74834 12.7711C8.03733 12.7711 7.45836 12.1711 7.45836 11.4371C7.45836 10.6971 8.03733 10.0991 8.74834 10.0991L8.75242 10.096Z" fill="#23252B"/>
</svg>
