<svg width="23" height="22" viewBox="0 0 23 22" fill="none" xmlns="http://www.w3.org/2000/svg">
<path d="M22.0028 6.46805C21.9513 5.29911 21.7622 4.49548 21.4914 3.79909C21.2081 3.06818 20.7754 2.40438 20.221 1.85012C19.6666 1.29586 19.0027 0.863327 18.2716 0.58016C17.5711 0.309361 16.7715 0.120339 15.6023 0.0687913C14.4245 0.0129143 14.0505 0 11.063 0C8.07546 0 7.70149 0.0129143 6.52803 0.0644623C5.35886 0.11601 4.55507 0.305213 3.85873 0.575831C3.12289 0.851956 2.45666 1.28624 1.90709 1.84801C1.34856 2.39765 0.915944 3.06189 0.639098 3.79491C0.368173 4.49548 0.179079 5.29474 0.127557 6.46369C0.0714871 7.64136 0.0587158 8.01525 0.0587158 11.0022C0.0587158 13.9891 0.0714871 14.363 0.123191 15.5363C0.174749 16.7052 0.363989 17.5089 0.634805 18.2052C0.917997 18.9362 1.35061 19.6 1.90498 20.1542C2.45935 20.7085 3.12329 21.141 3.85436 21.4242C4.55507 21.695 5.35449 21.884 6.52385 21.9355C7.69724 21.9872 8.07131 22 11.0588 22C14.0463 22 14.4202 21.9872 15.5938 21.9355C16.7629 21.884 17.5667 21.695 18.2631 21.4242C18.9944 21.1415 19.6586 20.7091 20.213 20.1548C20.7675 19.6004 21.2 18.9364 21.4828 18.2052C21.7534 17.5047 21.9427 16.7053 21.9942 15.5363C22.0458 14.363 22.0587 13.9891 22.0587 11.0022C22.0587 8.01529 22.0543 7.64143 22.0028 6.46812L22.0028 6.46805ZM20.0213 15.4503C19.974 16.5247 19.7934 17.1049 19.6429 17.4917C19.4595 17.9662 19.1789 18.3971 18.8191 18.7568C18.4593 19.1166 18.0283 19.3971 17.5537 19.5804C17.1668 19.7309 16.5822 19.9115 15.5119 19.9585C14.3512 20.0102 14.0032 20.023 11.0673 20.023C8.13135 20.023 7.77889 20.0102 6.62249 19.9585C5.54785 19.9112 4.96754 19.7309 4.58069 19.5804C4.10315 19.4052 3.67124 19.1246 3.31706 18.7595C2.95283 18.4046 2.67232 17.973 2.49595 17.4961C2.3455 17.1093 2.16485 16.5248 2.1178 15.4547C2.0661 14.2942 2.05332 13.9461 2.05332 11.0107C2.05332 8.07539 2.0661 7.72299 2.1178 6.567C2.1651 5.49257 2.3455 4.91237 2.49595 4.5256C2.6712 4.04698 2.95356 3.61475 3.32146 3.26193C3.67633 2.89769 4.10807 2.61728 4.58516 2.44116C4.97205 2.29074 5.55665 2.11012 6.62696 2.06283C7.78765 2.01128 8.13583 1.99837 11.0716 1.99837C14.0119 1.99837 14.36 2.01128 15.5164 2.06283C16.591 2.11012 17.1713 2.29063 17.5582 2.44116C18.0358 2.61629 18.4677 2.89684 18.8219 3.26193C19.1862 3.61681 19.4668 4.04846 19.6432 4.52545C19.7936 4.91226 19.9743 5.49675 20.0216 6.56686C20.0731 7.72732 20.086 8.07524 20.086 11.0106C20.086 13.946 20.0731 14.2898 20.0216 15.4502L20.0213 15.4503Z" fill="#23252B"/>
<path d="M11.0628 5.35107C9.94484 5.35109 8.85198 5.68255 7.92242 6.30356C6.99286 6.92456 6.26837 7.80721 5.84054 8.83988C5.41272 9.87256 5.30079 11.0089 5.5189 12.1052C5.73701 13.2014 6.27537 14.2084 7.0659 14.9988C7.85644 15.7892 8.86363 16.3274 9.96013 16.5455C11.0566 16.7636 12.1932 16.6516 13.226 16.2239C14.2589 15.7961 15.1417 15.0718 15.7629 14.1424C16.384 13.213 16.7155 12.1204 16.7155 11.0026C16.7151 9.50384 16.1195 8.06656 15.0595 7.00676C13.9995 5.94697 12.5619 5.35143 11.0628 5.35107ZM11.0628 14.6686C10.3376 14.6685 9.6287 14.4535 9.02573 14.0507C8.42275 13.6479 7.95279 13.0753 7.67528 12.4054C7.39777 11.7356 7.32517 10.9985 7.46666 10.2873C7.60815 9.5762 7.95738 8.92299 8.47018 8.4103C8.98299 7.89761 9.63633 7.54847 10.3476 7.40703C11.0589 7.26559 11.7961 7.3382 12.4661 7.61567C13.1361 7.89315 13.7088 8.36303 14.1117 8.9659C14.5146 9.56878 14.7296 10.2776 14.7296 11.0026C14.7294 11.9749 14.3431 12.9072 13.6554 13.5947C12.9678 14.2822 12.0352 14.6684 11.0628 14.6686Z" fill="#23252B"/>
<path d="M18.2589 5.12608C18.2589 5.38704 18.1815 5.64213 18.0365 5.85911C17.8915 6.07609 17.6854 6.24521 17.4442 6.34508C17.2031 6.44494 16.9378 6.47108 16.6818 6.42017C16.4258 6.36927 16.1906 6.24361 16.0061 6.05909C15.8215 5.87457 15.6958 5.63948 15.6449 5.38353C15.5939 5.12759 15.6201 4.8623 15.7199 4.6212C15.8198 4.38011 15.989 4.17403 16.206 4.02904C16.423 3.88405 16.6781 3.80666 16.9391 3.80664C17.1124 3.80663 17.2841 3.84075 17.4442 3.90706C17.6043 3.97336 17.7498 4.07055 17.8723 4.19307C17.9949 4.31559 18.0921 4.46105 18.1584 4.62114C18.2248 4.78122 18.2589 4.9528 18.2589 5.12608Z" fill="#23252B"/>
</svg>
