<svg width="27" height="24" viewBox="0 0 27 24" fill="none" xmlns="http://www.w3.org/2000/svg">
<path d="M23.3993 6.1783C23.4158 6.4322 23.4158 6.68613 23.4158 6.94002C23.4158 14.684 18.0807 23.6071 8.32966 23.6071C5.32563 23.607 2.53496 22.6457 0.1875 20.9773C0.612656 21.0291 1.04019 21.0533 1.46791 21.0499C3.85437 21.0566 6.17329 20.175 8.05063 18.5472C6.94424 18.5249 5.87177 18.1215 4.983 17.3931C4.09423 16.6648 3.43354 15.648 3.0932 14.4847C3.42447 14.5427 3.75921 14.573 4.09459 14.5754C4.56543 14.5739 5.03423 14.5069 5.48991 14.376C4.28918 14.1077 3.20954 13.3885 2.43445 12.3404C1.65935 11.2923 1.23662 9.9801 1.23807 8.62668V8.554C1.97276 9.00707 2.79396 9.26193 3.63474 9.2978C2.50932 8.46857 1.71279 7.19607 1.40773 5.74006C1.10267 4.28405 1.31208 2.7543 1.99323 1.46307C3.32506 3.2741 4.98655 4.75566 6.86998 5.81165C8.7534 6.86765 10.8167 7.47452 12.9261 7.5929C12.841 7.15168 12.797 6.702 12.7947 6.25088C12.7957 5.07592 13.1162 3.92838 13.7146 2.95707C14.313 1.98576 15.1618 1.23547 16.1508 0.803492C17.1398 0.371512 18.2235 0.277766 19.2613 0.53441C20.2992 0.791053 21.2433 1.38625 21.9712 2.24282C23.1587 1.99019 24.2974 1.51154 25.3365 0.828227C24.9411 2.18192 24.1123 3.32974 23.0055 4.05639C24.0725 3.92952 25.1067 3.60297 26.0588 3.14962C25.3328 4.31723 24.4338 5.34115 23.3995 6.17827L23.3993 6.1783Z" fill="#23252B"/>
</svg>
